<!DOCTYPE svg PUBLIC "-//W3C//DTD SVG 20010904//EN" "http://www.w3.org/TR/2001/REC-SVG-20010904/DTD/svg10.dtd">
<svg version="1.0" xmlns="http://www.w3.org/2000/svg" width="64px" height="64px" viewBox="0 0 640 640" preserveAspectRatio="xMidYMid meet">
<g id="layer101" fill="#434343" stroke="none">
 <path d="M218 458 l-88 -51 0 -119 c0 -117 0 -119 25 -130 14 -6 25 -16 25 -21 0 -6 3 -8 6 -4 3 3 31 -10 62 -29 32 -19 64 -34 72 -34 8 0 40 15 72 34 31 19 59 32 62 29 3 -4 6 -2 6 4 0 5 11 15 25 21 25 11 25 13 25 131 l0 119 -89 51 c-49 28 -95 51 -102 51 -8 0 -53 -24 -101 -52z m32 -83 l0 -65 35 17 c33 16 37 16 70 0 l35 -17 0 65 c0 36 2 65 4 65 2 0 24 -12 50 -26 l46 -26 0 -95 0 -95 -86 46 -87 46 -73 -40 c-40 -22 -78 -40 -84 -40 -6 0 -10 34 -10 89 l0 90 43 24 c23 14 45 25 50 26 4 1 7 -28 7 -64z"/>
 </g>
<g id="layer102" fill="#0066cc" stroke="none">
 <path d="M213 577 l-93 -52 0 -52 c0 -29 3 -53 7 -53 4 0 47 23 95 50 48 28 91 50 96 50 4 0 45 -22 92 -50 47 -27 88 -50 93 -50 4 0 7 24 7 53 l0 52 -90 53 c-49 28 -95 52 -102 52 -7 -1 -55 -24 -105 -53z"/>
 </g>
<g id="layer103" fill="#737373" stroke="none">
 </g>
<g id="layer104" fill="#de009d" stroke="none">
 <path d="M526 374 c-3 -9 -6 -58 -6 -109 l0 -94 -95 -53 c-52 -29 -95 -55 -95 -58 0 -7 77 -50 90 -50 7 0 54 24 106 53 l94 52 0 115 0 115 -40 23 c-46 26 -46 26 -54 6z"/>
 </g>
<g id="layer105" fill="#fd8b00" stroke="none">
 <path d="M58 367 l-38 -22 0 -115 0 -115 94 -52 c52 -29 99 -53 106 -53 13 0 90 43 90 50 0 3 -43 29 -95 58 l-95 53 0 94 c0 90 -5 125 -19 125 -3 -1 -23 -11 -43 -23z"/>
 </g>
<g id="layer106" fill="#929292" stroke="none">
 </g>
<g id="layer107" fill="#fefefe" stroke="none">
 <path d="M203 412 l-43 -23 0 -90 0 -89 78 42 79 42 81 -43 82 -42 0 90 0 89 -45 25 -45 26 0 -65 c0 -35 -2 -64 -5 -64 -4 0 -19 7 -35 15 -27 14 -33 14 -60 0 -16 -8 -31 -15 -34 -15 -3 0 -6 28 -8 63 l-3 62 -42 -23z"/>
 </g>

</svg>